# xmcd
#
# Track frame offsets:
#	182
#	53357
#	85307
#	120032
#	182582
#	221882
#	258482
#
# Disc length: 3743 seconds
#
# Revision: 5
# Processed by: cddbd v1.5.2PL0 Copyright (c) Steve Scherf et al.
# Submitted via: dBpowerAMP V4.0
#
DISCID=540e9d07
DTITLE=Various Artist - Wolfgang Amadeus Mozart - Excelsior - Classic Gold
DYEAR=1993
DGENRE=Classical
TTITLE0=Concerto No. 21 C major K467- Allegro maestoso
TTITLE1=Concerto No. 21 C major K467- Andante
TTITLE2=Concerto No. 21 C major K467- Allegro assai
TTITLE3=Concerto No. 231 A major K488 - Allegro
TTITLE4=Concerto No. 231 A major K488 - Adagio
TTITLE5=Concerto No. 231 A major K488 - Allegro assai
TTITLE6=Fantasy K 475 - in C minor
EXTD=
EXTT0=
EXTT1=
EXTT2=
EXTT3=
EXTT4=
EXTT5=
EXTT6=
PLAYORDER=
